<svg width="18" height="24" viewBox="0 0 18 24" fill="none" xmlns="http://www.w3.org/2000/svg">
<path d="M13 0C13.5523 0 14 0.447715 14 1V4H17.2402C17.4417 4.00006 17.6349 4.08018 17.7773 4.22266C17.9198 4.36513 17.9999 4.55829 18 4.75977V13C18 13.5523 17.5523 14 17 14H14V23C14 23.5523 13.5523 24 13 24H1C0.447715 24 0 23.5523 0 23V1C0 0.447715 0.447715 0 1 0H13ZM1 23H13V14H12.1797L10.1797 16C9.99098 16.1871 9.73546 16.2916 9.46973 16.29C9.33981 16.2916 9.21067 16.2675 9.08984 16.2197C8.71319 16.0649 8.4677 15.6973 8.46973 15.29V14H6C5.44772 14 5 13.5523 5 13V5C5 4.44772 5.44772 4 6 4H13V1H1V23ZM7 19.5C7.82843 19.5 8.5 20.1716 8.5 21C8.5 21.8284 7.82843 22.5 7 22.5C6.17157 22.5 5.5 21.8284 5.5 21C5.5 20.1716 6.17157 19.5 7 19.5ZM7 20.5C6.72386 20.5 6.5 20.7239 6.5 21C6.5 21.2761 6.72386 21.5 7 21.5C7.27614 21.5 7.5 21.2761 7.5 21C7.5 20.7239 7.27614 20.5 7 20.5ZM6 13H8.46973C9.02201 13 9.46973 13.4477 9.46973 14V15.29L11.4697 13.29C11.6613 13.1074 11.915 13.0038 12.1797 13H17V5H6V13ZM13.4697 10H8V9H13.4697V10ZM14.9697 8H8V7H14.9697V8ZM9 3H5.01953V2H9V3ZM11 2.99023H10V1.99023H11V2.99023Z" fill="#262626"/>
</svg>
