<svg width="18" height="24" viewBox="0 0 18 24" fill="none" xmlns="http://www.w3.org/2000/svg">
<path d="M12 0C12.6 0 13 0.400391 13 0.900391V1H17C17.6 1 18 1.4 18 2V23C18 23.6 17.6 24 17 24H1C0.4 24 0 23.6 0 23V2C0 1.4 0.4 1 1 1H5V0.900391C5 0.400391 5.4 0 6 0H12ZM1 23H17V2H13V3H15C15.6 3 16 3.4 16 4V21C16 21.6 15.6 22 15 22H3C2.4 22 2 21.6 2 21V4C2 3.4 2.4 3 3 3H5V2H1V23ZM3 21H15V4H13V4.09961C13 4.59961 12.6 5 12 5H6C5.4 5 5 4.59961 5 4.09961V4H3V21ZM11 17H5V16H11V17ZM13 13H5V12H13V13ZM13 9H5V8H13V9ZM6 4H12V1H6V4Z" fill="#262626"/>
</svg>
