<svg width="23" height="21" viewBox="0 0 23 21" fill="none" xmlns="http://www.w3.org/2000/svg">
<path d="M11.474 14.6223C11.2684 14.6223 11.0674 14.6832 10.8965 14.7974C10.7256 14.9116 10.5924 15.074 10.5137 15.2639C10.4351 15.4538 10.4145 15.6628 10.4546 15.8644C10.4947 16.066 10.5937 16.2512 10.739 16.3966C10.8844 16.5419 11.0696 16.6409 11.2712 16.681C11.4728 16.7211 11.6818 16.7005 11.8717 16.6219C12.0616 16.5432 12.2239 16.41 12.3381 16.2391C12.4524 16.0681 12.5133 15.8672 12.5133 15.6616C12.5133 15.386 12.4038 15.1216 12.2089 14.9267C12.014 14.7318 11.7496 14.6223 11.474 14.6223ZM22.5639 16.1501L14.1971 1.59918C13.9266 1.11434 13.5317 0.71049 13.0529 0.429356C12.5742 0.148223 12.0291 0 11.474 0C10.9188 0 10.3737 0.148223 9.89498 0.429356C9.41626 0.71049 9.02129 1.11434 8.75085 1.59918L0.436028 16.1501C0.156229 16.622 0.00588367 17.1594 0.000169208 17.7079C-0.00554526 18.2565 0.133574 18.7969 0.403481 19.2745C0.673389 19.7521 1.06453 20.15 1.53741 20.4281C2.0103 20.7062 2.54819 20.8546 3.09677 20.8584H19.8511C20.4041 20.8638 20.9486 20.7221 21.4288 20.4478C21.9089 20.1734 22.3075 19.7763 22.5836 19.2971C22.8597 18.8179 23.0033 18.2739 22.9999 17.7209C22.9964 17.1679 22.8459 16.6258 22.5639 16.1501ZM20.7658 18.2288C20.6747 18.3909 20.5418 18.5256 20.3809 18.6188C20.22 18.7121 20.0371 18.7604 19.8511 18.7589H3.09677C2.91084 18.7604 2.7279 18.7121 2.56703 18.6188C2.40616 18.5256 2.27324 18.3909 2.18214 18.2288C2.09092 18.0708 2.04289 17.8916 2.04289 17.7092C2.04289 17.5267 2.09092 17.3475 2.18214 17.1895L10.497 2.63853C10.5842 2.46829 10.7167 2.32541 10.8799 2.22564C11.0431 2.12588 11.2307 2.07308 11.422 2.07308C11.6133 2.07308 11.8009 2.12588 11.9641 2.22564C12.1273 2.32541 12.2598 2.46829 12.347 2.63853L20.7138 17.1895C20.8169 17.3452 20.8762 17.5259 20.8853 17.7124C20.8945 17.899 20.8532 18.0845 20.7658 18.2496V18.2288ZM11.474 6.30745C11.1983 6.30745 10.9339 6.41695 10.739 6.61187C10.5441 6.80679 10.4346 7.07115 10.4346 7.3468V11.5042C10.4346 11.7799 10.5441 12.0442 10.739 12.2391C10.9339 12.4341 11.1983 12.5436 11.474 12.5436C11.7496 12.5436 12.014 12.4341 12.2089 12.2391C12.4038 12.0442 12.5133 11.7799 12.5133 11.5042V7.3468C12.5133 7.07115 12.4038 6.80679 12.2089 6.61187C12.014 6.41695 11.7496 6.30745 11.474 6.30745Z" fill="white"/>
</svg>
