<svg width="24" height="19" viewBox="0 0 24 19" fill="none" xmlns="http://www.w3.org/2000/svg">
<path d="M7.79003 3.05175e-05C8.05582 -0.00149573 8.31128 0.102892 8.49999 0.290069L10.2099 2.00003H23C23.5522 2.00003 23.9999 2.44776 24 3.00003V18C24 18.5523 23.5522 19 23 19H0.999998C0.447715 19 0 18.5523 0 18V1.00003C1.78454e-05 0.44776 0.447726 3.05175e-05 0.999998 3.05175e-05H7.79003ZM0.999998 18H23V3.00003H10.2099C9.94416 3.00155 9.68869 2.89716 9.49998 2.70999L7.79003 1.00003H0.999998V18ZM11 6.00002C11.8126 6.0271 12.4559 6.69674 12.4502 7.50978V8.50978C12.4514 9.14479 12.0498 9.71102 11.4502 9.91994L12.9297 11.7305L13.9297 10.5205H15.25L13.6601 12.5205L15.29 14.5205H14L13 13.3203L12 14.5205H10.7402L12.3301 12.5205L10.2695 10H8.99999V12.5H7.99999V6.04983L8.54979 6.00002H11ZM8.99999 9.00002H11C11.2761 9.00002 11.5 8.77616 11.5 8.50002V7.50002C11.4946 7.22613 11.2739 7.00534 11 7.00002H8.99999V9.00002Z" fill="#262626"/>
</svg>
