<svg width="24" height="20" viewBox="0 0 24 20" fill="none" xmlns="http://www.w3.org/2000/svg">
<path fill-rule="evenodd" clip-rule="evenodd" d="M0 19V20H19.24C20.3446 20 21.24 19.1046 21.24 18C21.2485 17.6514 21.1658 17.3067 21 17C21.742 16.9999 22.423 16.5891 22.769 15.9327C23.1151 15.2763 23.0692 14.4822 22.65 13.87C23.4503 13.595 23.9909 12.8462 24 12C24 10.8954 23.1046 10 22 10H21.73C21.9063 9.69616 21.9994 9.35126 22 9C22 7.89543 21.1046 7 20 7H19.5V5.5H20C20.5523 5.5 21 5.05228 21 4.5V1C21 0.447715 20.5523 0 20 0H4C3.44772 0 3 0.447715 3 1V4.5C3.00552 4.74092 3.09785 4.97174 3.26 5.15L1 6.46H0V7.46H0.91L1.28 7.38L3.9 5.94C4.40169 5.65066 4.97086 5.49888 5.55 5.5H10.1C10.6523 5.5 11.1 5.94772 11.1 6.5C11.1 7.05228 10.6523 7.5 10.1 7.5H8C7.538 7.48292 7.12451 7.78476 7 8.23L6.29 10.84C5.94542 12.1183 4.78393 13.0048 3.46 13H2.08V14H3.46C3.79922 13.9942 4.1359 13.9403 4.46 13.84V19H0ZM19.5 18.94V17.05C19.9028 17.1894 20.1729 17.5688 20.1729 17.995C20.1729 18.4212 19.9028 18.8006 19.5 18.94ZM21 16H19.5V14H21C21.5523 14 22 14.4477 22 15C22 15.5523 21.5523 16 21 16ZM22 11C22.5523 11 23 11.4477 23 12C23 12.5523 22.5523 13 22 13H19.5V11H22ZM20 8C20.5523 8 21 8.44771 21 9C21 9.55229 20.5523 10 20 10H19.5V8H20ZM10.1 4.5H4V1H8.5V3.5H9.5V1H14.5V3.5H15.5V1H20V4.5H10.1ZM5.5 13.4C6.35562 12.8803 6.98132 12.0544 7.25 11.09L8 8.49H10.12C10.8342 8.48927 11.4937 8.10778 11.8505 7.48911C12.2073 6.87044 12.2071 6.10849 11.85 5.49H18.5V17V19H5.5V13.4Z" fill="#262626"/>
</svg>
